<svg width="43" height="54" viewBox="0 0 43 54" fill="none" xmlns="http://www.w3.org/2000/svg">
<path fill-rule="evenodd" clip-rule="evenodd" d="M41.5473 0.000144461C41.9272 -0.00526527 42.2936 0.141453 42.5661 0.408039C42.701 0.540096 42.8087 0.697611 42.8832 0.871589C42.9576 1.04557 42.9972 1.2326 42.9999 1.42201C43.0025 1.61142 42.968 1.7995 42.8985 1.9755C42.8289 2.1515 42.7256 2.31199 42.5944 2.44778C41.1237 3.97115 39.587 5.81671 38.2891 7.69581C38.9119 8.63499 41.2377 12.4814 39.8488 15.6404C39.129 17.2775 37.6061 18.3534 35.3195 18.8496C35.7244 21.0572 36.4808 23.3997 37.2251 25.6981C38.3052 29.0341 39.3217 32.1848 39.3217 34.9784C39.3217 38.9306 37.0324 40.9981 34.7782 40.9981C32.6938 40.9981 30.4351 39.227 30.4351 35.339C30.4351 30.4572 29.1891 29.0544 28.1147 28.6513V47.8698H31.2185C32.0097 47.8698 32.5915 48.4254 32.5915 49.222V52.4674C32.5915 53.264 32.0097 54 31.2185 54H1.49223C0.701076 54 0 53.264 0 52.4674V49.222C0 48.4254 0.701076 47.8698 1.49223 47.8698H4.47686V10.4573C4.47686 9.66073 5.17793 9.10504 5.96908 9.10504H7.52112V7.57248C7.52112 6.77591 8.22219 6.22022 9.01334 6.22022H23.5184C24.3095 6.22022 24.8913 6.77591 24.8913 7.57248V9.10504H26.7417C27.5328 9.10504 28.1147 9.66073 28.1147 10.4573V25.6987C33.3003 26.5638 33.3003 33.0733 33.3003 35.3291V35.3388C33.3003 37.1602 34.066 38.1131 34.793 38.1131C35.603 38.1131 36.4638 37.0144 36.4638 34.9782C36.4638 32.6428 35.5122 29.7037 34.5047 26.5921L34.5046 26.5916C33.0738 22.1729 31.5944 17.6041 32.3707 13.5217C33.4131 8.0409 39.3589 1.66023 40.5402 0.436887C40.8051 0.162649 41.1674 0.00555419 41.5473 0.000144461ZM24.4717 25.09C24.7404 24.8195 24.8913 24.4526 24.8913 24.07V13.7929C24.8913 13.4103 24.7404 13.0434 24.4717 12.7729C24.2031 12.5024 23.8387 12.3505 23.4587 12.3505H8.95371C8.57376 12.3505 8.20938 12.5024 7.94071 12.7729C7.67205 13.0434 7.52112 13.4103 7.52112 13.7929V24.07C7.52112 24.4526 7.67205 24.8195 7.94071 25.09C8.20938 25.3605 8.57376 25.5124 8.95371 25.5124H23.4587C23.8387 25.5124 24.2031 25.3605 24.4717 25.09ZM35.0241 15.9594C36.1834 15.661 36.924 15.1644 37.2285 14.4757C37.7231 13.3562 37.1647 11.6927 36.5723 10.4798C35.8868 11.7603 35.3897 12.9875 35.1849 14.064C35.0699 14.6699 35.0206 15.3036 35.0241 15.9594ZM20.8227 39.7131C21.2512 38.9509 21.4654 37.9946 21.4654 36.8444C21.4654 35.825 21.2715 34.9635 20.8835 34.2599C20.5002 33.5562 19.9386 33.0217 19.1989 32.6564C18.4591 32.291 17.557 32.1083 16.4925 32.1083H13.069V42H16.2692C17.3202 42 18.2336 41.8106 19.0094 41.4317C19.7897 41.0483 20.3942 40.4754 20.8227 39.7131ZM18.4478 35.4507C18.6102 35.8431 18.6914 36.3392 18.6914 36.9392C18.6914 37.9089 18.502 38.6306 18.1231 39.1042C17.7442 39.5733 17.1488 39.8079 16.3369 39.8079H15.7415V34.2666H16.5196C17.0067 34.2666 17.4104 34.3659 17.7307 34.5643C18.0509 34.7583 18.29 35.0537 18.4478 35.4507Z" fill="#2A7CD9"/>
</svg>
