<svg width="48" height="48" viewBox="0 0 48 48" fill="none" xmlns="http://www.w3.org/2000/svg">
<path d="M32.0625 48H1.875C0.839437 48 0 47.1606 0 46.125V44.25C0 43.2144 0.839437 42.375 1.875 42.375H32.0625C33.0981 42.375 33.9375 43.2144 33.9375 44.25V46.125C33.9375 47.1606 33.0981 48 32.0625 48ZM33.9375 3.75002V1.87502C33.9375 0.839461 33.0981 2.36845e-05 32.0625 2.36845e-05H1.875C0.839437 2.36845e-05 0 0.839461 0 1.87502V3.75002C0 4.78558 0.839437 5.62502 1.875 5.62502V8.43752C0.839437 8.43752 0 9.27696 0 10.3125V37.6875C0 38.7231 0.839437 39.5625 1.875 39.5625H32.0625C33.0981 39.5625 33.9375 38.7231 33.9375 37.6875V10.3125C33.9375 9.27696 33.0981 8.43752 32.0625 8.43752V5.62502C33.0981 5.62502 33.9375 4.78558 33.9375 3.75002ZM24.4687 26.6763C24.4687 29.8257 22.5268 32.5201 19.7754 33.631C19.1931 33.8662 18.5499 33.462 18.4977 32.836L17.7303 23.627C17.7147 23.4357 17.6277 23.2574 17.4866 23.1273C17.3455 22.9973 17.1606 22.9251 16.9687 22.9251C16.7769 22.9251 16.592 22.9973 16.4509 23.1273C16.3098 23.2574 16.2228 23.4357 16.2072 23.627L15.4404 32.8289C15.3881 33.4571 14.7406 33.8615 14.1576 33.6218C11.4008 32.4885 9.46875 29.7424 9.46875 26.5821V26.3356C9.46876 24.0205 10.0441 21.7417 11.1429 19.704C12.2418 17.6664 13.8298 15.9337 15.7642 14.6618C16.1219 14.4266 16.5406 14.3012 16.9687 14.3012C17.3969 14.3012 17.8156 14.4266 18.1733 14.6618C20.1077 15.9337 21.6957 17.6664 22.7946 19.7041C23.8935 21.7418 24.4687 24.0206 24.4687 26.3357V26.6763ZM25.0312 8.43752H8.90625C8.12962 8.43752 7.5 7.80789 7.5 7.03127C7.5 6.25464 8.12962 5.62502 8.90625 5.62502H25.0312C25.8079 5.62502 26.4375 6.25464 26.4375 7.03127C26.4375 7.80789 25.8079 8.43752 25.0312 8.43752ZM47.5882 6.03968L41.9632 0.41468C41.0772 -0.471164 39.5625 0.156211 39.5625 1.40909C39.5625 1.78202 39.7106 2.13977 39.9743 2.40349L44.9785 7.40768C45.0783 7.50739 45.1462 7.63445 45.1737 7.77278C45.2013 7.91111 45.1871 8.0545 45.1332 8.18481C45.0792 8.31512 44.9878 8.42649 44.8705 8.50485C44.7533 8.58321 44.6154 8.62503 44.4743 8.62502C41.7617 8.62502 39.5625 10.8242 39.5625 13.537V18C39.5625 19.0356 40.4019 19.875 41.4375 19.875H45.1875V43.7415C45.1875 44.4987 44.6056 45.1503 43.8492 45.1859C43.0417 45.2239 42.375 44.5805 42.375 43.7812V26.9063C42.375 24.5763 40.4862 22.6875 38.1562 22.6875C37.3796 22.6875 36.75 23.3171 36.75 24.0938C36.75 24.8645 37.3701 25.4904 38.1386 25.4999C38.9217 25.5095 39.5625 26.1231 39.5625 26.9063V43.7812C39.5625 46.1112 41.4513 48 43.7812 48C46.1112 48 48 46.1112 48 43.7812V7.03408C48 6.66114 47.8519 6.30339 47.5882 6.03968Z" fill="#2A7CD9"/>
</svg>
