<svg width="43" height="54" viewBox="0 0 43 54" fill="none" xmlns="http://www.w3.org/2000/svg">
<path fill-rule="evenodd" clip-rule="evenodd" d="M41.5473 0.000144461C41.9272 -0.00526527 42.2936 0.141453 42.5661 0.408039C42.701 0.540096 42.8087 0.697611 42.8832 0.871589C42.9576 1.04557 42.9972 1.2326 42.9999 1.42201C43.0025 1.61142 42.968 1.7995 42.8985 1.9755C42.8289 2.1515 42.7256 2.31199 42.5944 2.44778C41.1237 3.97115 39.587 5.81671 38.2891 7.69581C38.9119 8.63499 41.2377 12.4814 39.8488 15.6404C39.129 17.2775 37.6061 18.3534 35.3195 18.8496C35.7244 21.0572 36.4808 23.3997 37.2251 25.6981C38.3052 29.0341 39.3217 32.1848 39.3217 34.9784C39.3217 38.9306 37.0324 40.9981 34.7782 40.9981C32.6938 40.9981 30.4351 39.227 30.4351 35.339C30.4351 30.4572 29.1891 29.0544 28.1147 28.6513V47.8698H31.2185C32.0097 47.8698 32.5915 48.4254 32.5915 49.222V52.4674C32.5915 53.264 32.0097 54 31.2185 54H1.49223C0.701076 54 0 53.264 0 52.4674V49.222C0 48.4254 0.701076 47.8698 1.49223 47.8698H4.47686V10.4573C4.47686 9.66073 5.17793 9.10504 5.96908 9.10504H7.52112V7.57248C7.52112 6.77591 8.22219 6.22022 9.01334 6.22022H23.5184C24.3095 6.22022 24.8913 6.77591 24.8913 7.57248V9.10504H26.7417C27.5328 9.10504 28.1147 9.66073 28.1147 10.4573V25.6987C33.3003 26.5638 33.3003 33.0733 33.3003 35.3291V35.3388C33.3003 37.1602 34.066 38.1131 34.793 38.1131C35.603 38.1131 36.4638 37.0144 36.4638 34.9782C36.4638 32.6428 35.5122 29.7037 34.5047 26.5921L34.5046 26.5916C33.0738 22.1729 31.5944 17.6041 32.3707 13.5217C33.4131 8.0409 39.3589 1.66023 40.5402 0.436887C40.8051 0.162649 41.1674 0.00555419 41.5473 0.000144461ZM24.4717 25.09C24.7404 24.8195 24.8913 24.4526 24.8913 24.07V13.7929C24.8913 13.4103 24.7404 13.0434 24.4717 12.7729C24.2031 12.5024 23.8387 12.3505 23.4587 12.3505H8.95371C8.57376 12.3505 8.20938 12.5024 7.94071 12.7729C7.67205 13.0434 7.52112 13.4103 7.52112 13.7929V24.07C7.52112 24.4526 7.67205 24.8195 7.94071 25.09C8.20938 25.3605 8.57376 25.5124 8.95371 25.5124H23.4587C23.8387 25.5124 24.2031 25.3605 24.4717 25.09ZM35.0241 15.9594C36.1834 15.661 36.924 15.1644 37.2285 14.4757C37.7231 13.3562 37.1647 11.6927 36.5723 10.4798C35.8868 11.7603 35.3897 12.9875 35.1849 14.064C35.0699 14.6699 35.0206 15.3036 35.0241 15.9594ZM13.4486 38.3647C13.5409 37.9329 13.587 37.4583 13.587 36.9408C13.587 36.3705 13.5162 35.8794 13.3744 35.4674C13.236 35.0553 13.0432 34.7175 12.7959 34.4538C12.5487 34.1868 12.2603 33.989 11.9307 33.8605C11.6044 33.7319 11.2533 33.6677 10.8776 33.6677C10.3469 33.6677 9.88871 33.7698 9.50306 33.9742C9.1207 34.1786 8.82569 34.4719 8.61803 34.8543C8.41367 35.2333 8.31149 35.6915 8.31149 36.2288C8.31149 36.7331 8.39389 37.1616 8.5587 37.5143C8.72351 37.8637 8.95424 38.1307 9.2509 38.3153C9.55085 38.4999 9.90354 38.5921 10.309 38.5921C10.5826 38.5921 10.8116 38.5559 10.9962 38.4834C11.1808 38.4109 11.3341 38.312 11.456 38.1867C11.578 38.0582 11.6818 37.9131 11.7675 37.7516H11.8269C11.8071 38.1109 11.7362 38.429 11.6143 38.7059C11.4923 38.9794 11.2813 39.1937 10.9814 39.3486C10.6847 39.5035 10.2645 39.581 9.7206 39.581C9.53272 39.581 9.36791 39.5744 9.22618 39.5612C9.08444 39.5447 8.94271 39.525 8.80097 39.5019V41.0494C8.93611 41.0692 9.10092 41.0824 9.2954 41.089C9.49317 41.0956 9.66622 41.0989 9.81455 41.0989C10.3518 41.0989 10.8265 41.0379 11.2385 40.9159C11.6505 40.794 12.0049 40.616 12.3015 40.382C12.5982 40.1446 12.8404 39.8579 13.0283 39.5217C13.2195 39.1822 13.3596 38.7965 13.4486 38.3647ZM10.393 35.4624C10.5216 35.3075 10.6996 35.23 10.927 35.23C11.0523 35.23 11.1594 35.2614 11.2484 35.324C11.3407 35.3866 11.4148 35.4707 11.4709 35.5761C11.5302 35.6783 11.5731 35.7937 11.5994 35.9222C11.6291 36.0475 11.6439 36.1744 11.6439 36.3029C11.6439 36.4315 11.6126 36.5568 11.55 36.6787C11.4874 36.7974 11.4 36.8963 11.2879 36.9754C11.1792 37.0512 11.0523 37.0891 10.9072 37.0891C10.6765 37.0891 10.5018 37.01 10.3831 36.8518C10.2645 36.6935 10.2051 36.4793 10.2051 36.209C10.2051 35.8662 10.2678 35.6173 10.393 35.4624ZM14.2347 41H19.4806V39.3882H16.7464V39.3387L17.2754 38.8641C17.7336 38.4488 18.116 38.0779 18.4225 37.7516C18.7291 37.422 18.9581 37.094 19.1098 36.7677C19.2647 36.4381 19.3421 36.064 19.3421 35.6454C19.3421 35.2663 19.2433 34.9284 19.0455 34.6318C18.8477 34.3318 18.5675 34.0962 18.205 33.9248C17.8457 33.7534 17.4205 33.6677 16.9293 33.6677C16.4514 33.6677 16.046 33.7237 15.7131 33.8358C15.3801 33.9478 15.0917 34.0929 14.8478 34.2709C14.6039 34.4456 14.3732 34.6301 14.1556 34.8246L15.2285 36.0805C15.5219 35.8266 15.7839 35.6355 16.0147 35.5069C16.2487 35.3751 16.4794 35.3092 16.7069 35.3092C16.8947 35.3092 17.0579 35.3569 17.1963 35.4525C17.3348 35.5481 17.404 35.703 17.404 35.9173C17.404 36.092 17.3628 36.2601 17.2804 36.4216C17.198 36.5831 17.0546 36.7792 16.8502 37.01C16.6492 37.2407 16.3657 37.5473 15.9998 37.9296L14.2347 39.7145V41ZM25.3346 36.7677H23.4904V34.9532H22.1653V36.7677H20.3211V38.0928H22.1653V39.8777H23.4904V38.0928H25.3346V36.7677Z" fill="#2A7CD9"/>
</svg>
