<svg width="31" height="58" viewBox="0 0 31 58" fill="none" xmlns="http://www.w3.org/2000/svg">
<path fill-rule="evenodd" clip-rule="evenodd" d="M24.0988 4.20616V14.5907H22.3173V8.97314C22.3166 8.34122 22.071 7.73537 21.6342 7.28854C21.1975 6.8417 20.6053 6.59036 19.9876 6.58965H10.9555C10.3378 6.59036 9.74568 6.8417 9.30893 7.28854C8.87218 7.73537 8.62651 8.34122 8.62582 8.97314V14.5907H6.84431V4.20616H24.0988ZM5.9112 54.9724H25.0315H25.0359C25.5497 54.9722 26.0621 54.9165 26.5644 54.8061V58H4.37869V54.8042C4.88227 54.9156 5.39599 54.972 5.9112 54.9724ZM26.0174 2.80411H4.92575C4.5623 2.80411 4.21374 2.65639 3.95674 2.39345C3.69974 2.13052 3.55536 1.7739 3.55536 1.40205C3.55536 1.03021 3.69974 0.673588 3.95674 0.410652C4.21374 0.147716 4.5623 0 4.92575 0H26.0174C26.3808 0 26.7294 0.147716 26.9864 0.410652C27.2434 0.673588 27.3878 1.03021 27.3878 1.40205C27.3878 1.7739 27.2434 2.13052 26.9864 2.39345C26.7294 2.65639 26.3808 2.80411 26.0174 2.80411ZM1.73542 51.7952C0.627533 50.6619 0.00354781 49.1256 0 47.5227V34.8105V34.5298V22.0408C0.00336673 20.4379 0.627225 18.9016 1.73505 17.7681C2.84288 16.6347 4.34446 15.9963 5.9112 15.9928H25.0884C26.6551 15.9962 28.1567 16.6344 29.2647 17.7678C30.3726 18.9012 30.9965 20.4375 31 22.0404V34.5298V34.8105V47.5171C30.9833 49.1257 30.348 50.6629 29.2317 51.7958C28.1154 52.9287 26.6079 53.5662 25.0355 53.5704H5.91161C4.3449 53.5669 2.84331 52.9286 1.73542 51.7952ZM21.6021 34.8105C21.8734 35.3109 22.0362 35.7247 22.4193 36.8352C22.9512 38.3769 23 39.3688 23 40.2941C23 44.0634 19.8429 47 16 47C12.1572 47 9 44.2074 9 40.4381C9 39.5128 9.11012 38.2542 9.71279 37.3093C10.1701 36.5924 10.4708 36.281 10.9041 35.8323C11.0419 35.6896 11.1931 35.533 11.367 35.3451C11.4756 35.2278 11.5702 35.1274 11.6547 35.0377C11.7334 34.9542 11.8032 34.88 11.8672 34.8105C11.9574 34.7123 12.036 34.6233 12.1112 34.5298C12.3057 34.2882 12.4782 34.0167 12.7732 33.4817C13.3502 32.4353 13.7532 30.3814 13.7532 29C13.8888 29.1068 14.0384 29.2211 14.1987 29.3435C15.1298 30.0544 16.4207 31.0402 17.4083 32.4353C17.8389 33.0436 18.2159 33.801 18.5211 34.5298C18.5606 34.6239 18.5988 34.7176 18.6358 34.8105C19.0967 35.9667 19.3652 36.9892 19.3652 37.1372C19.385 37.1225 19.4083 37.1058 19.4346 37.0869C19.7899 36.8316 20.7034 36.1753 21.0851 34.8105C21.1104 34.72 21.1333 34.6265 21.1536 34.5298C21.1796 34.406 21.2012 34.277 21.2178 34.1426C21.3028 34.2864 21.3774 34.4131 21.4446 34.5298C21.5018 34.6291 21.5537 34.7211 21.6021 34.8105Z" fill="#2A7CD9"/>
</svg>
