<svg width="53" height="53" viewBox="0 0 53 53" fill="none" xmlns="http://www.w3.org/2000/svg">
<path d="M52.5762 0.400482C52.3101 0.138833 51.9521 -0.00516776 51.581 0.000141786C51.21 0.00545133 50.8562 0.159637 50.5974 0.428796C49.4436 1.62948 43.636 7.892 42.6179 13.2713C41.8597 17.2782 43.3048 21.7626 44.7023 26.0996C45.6863 29.1536 46.6158 32.0383 46.6158 34.3305C46.6158 36.3289 45.775 37.4073 44.9839 37.4073C44.2738 37.4073 43.5259 36.4721 43.5259 34.6844C43.5259 32.4793 43.5332 26.0731 38.4608 25.2228V10.2636C38.4608 9.48182 37.8925 8.93643 37.1198 8.93643H35.3124V7.43225C35.3124 6.65043 34.7442 6.10503 33.9714 6.10503H19.8037C19.031 6.10503 18.3462 6.65043 18.3462 7.43225V8.93643H16.8303C16.0575 8.93643 15.3727 9.48182 15.3727 10.2636V46.9833H12.4575C11.6848 46.9833 11 47.5287 11 48.3105V51.4958C11 52.2776 11.6848 53 12.4575 53H41.4925C42.2653 53 42.8336 52.2776 42.8336 51.4958V48.3105C42.8336 47.5287 42.2653 46.9833 41.4925 46.9833H38.4608V28.1207C39.5103 28.5164 40.7273 29.8932 40.7273 34.6846C40.7273 38.5006 42.9334 40.2389 44.9694 40.2389C47.1711 40.2389 49.4072 38.2097 49.4072 34.3307C49.4072 31.5888 48.4144 28.4964 47.3593 25.2223C46.6324 22.9663 45.8936 20.6672 45.4981 18.5005C47.7316 18.0135 49.219 16.9576 49.9221 15.3508C51.2787 12.2502 49.007 8.47509 48.3987 7.55329C49.6664 5.70899 51.1673 3.89761 52.6038 2.40246C52.732 2.26917 52.8329 2.11166 52.9008 1.93892C52.9688 1.76617 53.0024 1.58158 52.9999 1.39568C52.9973 1.20978 52.9585 1.02621 52.8859 0.855449C52.8132 0.684693 52.708 0.530094 52.5762 0.400482ZM35.3124 23.6243C35.3124 23.9998 35.165 24.3598 34.9026 24.6253C34.6402 24.8908 34.2843 25.04 33.9132 25.04H19.7455C19.3744 25.04 19.0185 24.8908 18.756 24.6253C18.4936 24.3598 18.3462 23.9998 18.3462 23.6243V13.5374C18.3462 13.162 18.4936 12.8019 18.756 12.5364C19.0185 12.2709 19.3744 12.1217 19.7455 12.1217H33.9132C34.2843 12.1217 34.6402 12.2709 34.9026 12.5364C35.165 12.8019 35.3124 13.162 35.3124 13.5374V23.6243ZM47.3627 14.2076C47.0653 14.8836 46.3419 15.3709 45.2095 15.6638C45.2062 15.0202 45.2543 14.3982 45.3666 13.8036C45.5667 12.747 46.0522 11.5425 46.7218 10.2858C47.3004 11.4762 47.8458 13.1088 47.3627 14.2076Z" fill="#2A7CD9"/>
<path d="M0.423798 0.400482C0.689945 0.138833 1.0479 -0.00516776 1.41897 0.000141786C1.79003 0.00545133 2.14383 0.159637 2.40255 0.428796C3.55643 1.62948 9.36396 7.892 10.3821 13.2713C11.1403 17.2782 9.69524 21.7626 8.29771 26.0996C7.31367 29.1536 6.3842 32.0383 6.3842 34.3305C6.3842 36.3289 7.22499 37.4073 8.0161 37.4073C8.72623 37.4073 9.47415 36.4721 9.47415 34.6844C9.47415 32.4793 9.4668 26.0731 14.5392 25.2228L14.5392 10.2636C14.5392 9.48182 15.1075 8.93643 15.8802 8.93643H17.6876V7.43225C17.6876 6.65043 18.2558 6.10503 19.0286 6.10503L33.1963 6.10503C33.969 6.10503 34.6538 6.65043 34.6538 7.43225V8.93643L36.1697 8.93643C36.9425 8.93643 37.6273 9.48182 37.6273 10.2636L37.6273 46.9833H40.5425C41.3152 46.9833 42 47.5287 42 48.3105V51.4958C42 52.2776 41.3152 53 40.5425 53L11.5075 53C10.7347 53 10.1664 52.2776 10.1664 51.4958V48.3105C10.1664 47.5287 10.7347 46.9833 11.5075 46.9833L14.5392 46.9833L14.5392 28.1207C13.4897 28.5164 12.2727 29.8932 12.2727 34.6846C12.2727 38.5006 10.0666 40.2389 8.03062 40.2389C5.82886 40.2389 3.59281 38.2097 3.59281 34.3307C3.59281 31.5888 4.5856 28.4964 5.64065 25.2223C6.36758 22.9663 7.1064 20.6672 7.50187 18.5005C5.26845 18.0135 3.78101 16.9576 3.07788 15.3508C1.72128 12.2502 3.993 8.47509 4.60134 7.55329C3.3336 5.70899 1.8327 3.89761 0.396164 2.40246C0.268044 2.26917 0.16713 2.11166 0.0991821 1.93892C0.0312347 1.76617 -0.00242233 1.58158 0.000144958 1.39568C0.00271225 1.20978 0.0414505 1.02621 0.11414 0.855449C0.186829 0.684693 0.292049 0.530094 0.423798 0.400482ZM17.6876 23.6243C17.6876 23.9998 17.835 24.3598 18.0974 24.6253C18.3598 24.8908 18.7157 25.04 19.0868 25.04L33.2545 25.04C33.6256 25.04 33.9815 24.8908 34.244 24.6253C34.5064 24.3598 34.6538 23.9998 34.6538 23.6243V13.5374C34.6538 13.162 34.5064 12.8019 34.244 12.5364C33.9815 12.2709 33.6256 12.1217 33.2545 12.1217L19.0868 12.1217C18.7157 12.1217 18.3598 12.2709 18.0974 12.5364C17.835 12.8019 17.6876 13.162 17.6876 13.5374L17.6876 23.6243ZM5.63733 14.2076C5.93468 14.8836 6.6581 15.3709 7.79047 15.6638C7.79379 15.0202 7.74569 14.3982 7.6334 13.8036C7.4333 12.747 6.94775 11.5425 6.2782 10.2858C5.6996 11.4762 5.15423 13.1088 5.63733 14.2076Z" fill="#2A7CD9"/>
</svg>
