<svg width="22" height="17" viewBox="0 0 22 17" fill="none" xmlns="http://www.w3.org/2000/svg">
<path d="M21.5898 0.306827C21.8321 0.520772 21.9788 0.821407 21.9979 1.14268C22.0169 1.46396 21.9067 1.7796 21.6913 2.02026L8.63861 16.5923C8.5238 16.7205 8.38291 16.8231 8.22524 16.8934C8.06757 16.9637 7.89669 17 7.72384 17C7.551 17 7.38011 16.9637 7.22244 16.8934C7.06477 16.8231 6.92389 16.7205 6.80907 16.5923L0.282712 9.30628C0.0797116 9.06397 -0.0204198 8.75284 0.00347066 8.43863C0.0273611 8.12442 0.173402 7.83173 0.410744 7.62239C0.648085 7.41304 0.95814 7.30344 1.27541 7.31674C1.59268 7.33003 1.89232 7.46518 2.11102 7.69364L7.72323 13.9584L19.863 0.406403C20.0788 0.166153 20.3819 0.020718 20.7056 0.00204729C21.0294 -0.0166234 21.3474 0.0929965 21.5898 0.306827Z" fill="#F2F2F2"/>
</svg>
