<svg width="25" height="25" viewBox="0 0 25 25" fill="none" xmlns="http://www.w3.org/2000/svg">
<path d="M6.80016 0C7.3556 0 7.86739 0.301248 8.13705 0.786922L10.0074 4.15616C10.2523 4.5973 10.2639 5.13088 10.0382 5.5822L8.23629 9.18607C8.23629 9.18607 8.75848 11.8707 10.9439 14.0561C13.1293 16.2415 15.805 16.7547 15.805 16.7547L19.4082 14.9531C19.8598 14.7272 20.3938 14.7389 20.8351 14.9843L24.2139 16.8628C24.6992 17.1326 25 17.6441 25 18.1992V22.0782C25 24.0535 23.1652 25.4803 21.2935 24.8487C17.4494 23.5516 11.4823 21.082 7.70019 17.2998C3.9181 13.5177 1.44839 7.55061 0.151301 3.70652C-0.480234 1.83483 0.946489 0 2.92181 0H6.80016Z" fill="#2A7CD9"/>
</svg>
