<svg width="25" height="25" viewBox="0 0 25 25" fill="none" xmlns="http://www.w3.org/2000/svg">
<path d="M13 10C15.7614 10 18 7.76143 18 5C18 2.23858 15.7614 0 13 0C10.2386 0 8 2.23858 8 5C8 7.76143 10.2386 10 13 10Z" fill="#2A7CD9"/>
<path d="M0 24.1429C0 24.6162 0.383756 25 0.857143 25H24.1429C24.6162 25 25 24.6162 25 24.1429C25 20.9426 25 19.3424 24.3945 18.1201C23.8619 17.0449 23.0119 16.1706 21.9666 15.6228C20.7782 15 19.2225 15 16.1111 15H8.88889C5.7775 15 4.22181 15 3.0334 15.6228C1.98804 16.1706 1.13815 17.0449 0.605521 18.1201C1.24176e-07 19.3424 0 20.9426 0 24.1429Z" fill="#2A7CD9"/>
</svg>
