<svg width="28" height="28" viewBox="0 0 28 28" fill="none" xmlns="http://www.w3.org/2000/svg">
<path d="M20 6.49977C20 5.67124 20.6718 5 21.5 5C22.3282 5 23 5.67147 23 6.49977C23 7.32794 22.3282 8 21.5 8C20.6718 8 20 7.32794 20 6.49977Z" fill="#F2F2F2"/>
<path fill-rule="evenodd" clip-rule="evenodd" d="M14.0003 7C10.1344 7.00013 7 10.1346 7 14.0007C7 17.8668 10.1345 21 14.0005 21C17.8667 21 21 17.8668 21 14.0007C21 10.1345 17.8664 7 14.0003 7ZM18.545 14.0007C18.545 11.4909 16.5105 9.4566 14.001 9.4566C11.4913 9.4566 9.45704 11.4909 9.45704 14.0007C9.45704 16.5102 11.4913 18.5448 14.001 18.5448C16.5105 18.5448 18.545 16.5102 18.545 14.0007Z" fill="#F2F2F2"/>
<path fill-rule="evenodd" clip-rule="evenodd" d="M14.0014 0C10.1991 0 9.72196 0.0166295 8.2286 0.0845899C6.73812 0.152839 5.7208 0.388797 4.83066 0.735004C3.90981 1.09263 3.12874 1.5709 2.35056 2.34933C1.57185 3.1275 1.09345 3.90856 0.734713 4.82914C0.387621 5.71953 0.151371 6.73723 0.0842894 8.22703C0.0174962 9.72038 0 10.1979 0 14C0 17.8021 0.0169179 18.2779 0.0845773 19.7711C0.153116 21.2616 0.389079 22.2789 0.735002 23.1691C1.09292 24.0898 1.5712 24.8709 2.34964 25.6491C3.12756 26.4279 3.90863 26.9074 4.82883 27.265C5.71962 27.6111 6.73734 27.8471 8.22742 27.9153C9.72078 27.9833 10.1976 28 13.9995 28C17.8021 28 18.2778 27.9833 19.7711 27.9153C21.2616 27.8471 22.2801 27.6111 23.1709 27.265C24.0914 26.9074 24.8713 26.4279 25.6492 25.6491C26.4279 24.8709 26.9063 24.0898 27.265 23.1694C27.6093 22.2789 27.8455 21.2613 27.9155 19.7715C27.9825 18.2782 28 17.8021 28 14C28 10.1979 27.9825 9.72064 27.9155 8.22729C27.8455 6.73697 27.6093 5.71953 27.265 4.8294C26.9063 3.90856 26.4279 3.1275 25.6492 2.34933C24.8705 1.57064 24.0916 1.09224 23.17 0.735004C22.2775 0.388797 21.2595 0.152839 19.7692 0.0845899C18.2758 0.0166295 17.8003 0 13.9969 0H14.0014ZM13.5345 2.52284L14.0011 2.52297C17.7393 2.52297 18.1822 2.53636 19.6584 2.60343C21.0234 2.66577 21.7643 2.89388 22.2578 3.08551C22.9112 3.33934 23.377 3.64266 23.8667 4.13261C24.3566 4.62256 24.6599 5.08928 24.9143 5.74263C25.1059 6.2356 25.3343 6.97636 25.3964 8.34135C25.4635 9.81724 25.4782 10.2605 25.4782 13.9967C25.4782 17.733 25.4635 18.1763 25.3964 19.6522C25.334 21.0172 25.1059 21.758 24.9143 22.2509C24.6606 22.9043 24.3566 23.3694 23.8667 23.8591C23.3766 24.3492 22.9114 24.6525 22.2578 24.9062C21.7648 25.0988 21.0234 25.3262 19.6584 25.3887C18.1826 25.4557 17.7393 25.4703 14.0011 25.4703C10.2628 25.4703 9.81975 25.4557 8.34397 25.3887C6.97897 25.3257 6.23806 25.0976 5.7443 24.9059C5.09093 24.6522 4.62421 24.3489 4.13425 23.8588C3.64429 23.3689 3.34097 22.9034 3.08661 22.2497C2.89499 21.7569 2.66661 21.016 2.6044 19.651C2.53733 18.1751 2.52394 17.7319 2.52394 13.9933C2.52394 10.2547 2.53733 9.81369 2.6044 8.3378C2.66687 6.97282 2.89499 6.23205 3.08661 5.73856C3.34032 5.08521 3.64429 4.61849 4.13425 4.12854C4.62421 3.63859 5.09093 3.33514 5.7443 3.08091C6.2378 2.88837 6.97897 2.66092 8.34397 2.59818C9.63547 2.53977 10.1359 2.52232 12.7452 2.51943V2.52297C12.989 2.52258 13.2515 2.52271 13.5345 2.52284Z" fill="#F2F2F2"/>
</svg>
